<?xml version="1.0" encoding="utf-8"?>
<!-- Generator: Adobe Illustrator 23.0.0, SVG Export Plug-In . SVG Version: 6.00 Build 0)  -->
<svg version="1.1" id="Capa_1" xmlns="http://www.w3.org/2000/svg" xmlns:xlink="http://www.w3.org/1999/xlink" x="0px" y="0px"
	 viewBox="0 0 512 512" style="enable-background:new 0 0 512 512;" xml:space="preserve">
<style type="text/css">
	.st0{fill:#3e007c;}
</style>
<path class="st0" d="M256.5,181.7l35.8,132.8c2.1,7.9,8.3,14.1,16.3,16.2c2,0.5,4,0.8,5.9,0.8c6,0,11.9-2.4,16.3-6.7l169.5-169.5
	c5.8-5.8,8.1-14.3,6-22.2s-8.3-14.1-16.2-16.3L357.2,81L284.1,6.7C279.8,2.4,274,0,267.9,0S256,2.4,251.6,6.7l-69.4,69.4
	c-4.3,4.3-6.7,10.2-6.7,16.3s2.4,11.9,6.7,16.3l25.9,25.9L81.2,248.3c-3.1-0.4-6.2-0.7-9.4-0.7C35,247.7,5,277.6,5,314.4
	s29.9,66.7,66.7,66.7c4.8,0,9.5-0.5,14-1.5l62.5,86.4h-42.5c-12.7,0-23,10.3-23,23s10.3,23,23,23h87.5l0,0l0,0h87.5
	c12.7,0,23-10.3,23-23s-10.3-23-23-23h-5.3v-5.3c0-12.7-10.3-23-23-23c-12.7,0-23,10.3-23,23v5.3h-24.5l-80.4-111
	c8.6-11.3,13.8-25.3,13.8-40.6c0-16-5.7-30.7-15.1-42.2L240.7,167L256.5,181.7z M51,314.4c0-11.5,9.3-20.8,20.8-20.8
	s20.8,9.3,20.8,20.8s-9.3,20.8-20.8,20.8S51,325.9,51,314.4z M267.9,55.5l36.9,36.9l-36.9,36.9L231,92.4L267.9,55.5z M326.3,264.1
	L300.4,168l43.1-43.1l96.1,25.9L326.3,264.1z"/>
</svg>
