<?xml version="1.0" encoding="utf-8"?>
<!-- Generator: Adobe Illustrator 23.0.0, SVG Export Plug-In . SVG Version: 6.00 Build 0)  -->
<svg version="1.1" id="Layer_1" xmlns="http://www.w3.org/2000/svg" xmlns:xlink="http://www.w3.org/1999/xlink" x="0px" y="0px"
	 viewBox="0 0 512 512" style="enable-background:new 0 0 512 512;" xml:space="preserve">
<style type="text/css">
	.st0{fill:#3e007c;}
</style>
<path class="st0" d="M192.3,227.7l35.4-35.4l91.9,91.9l-35.4,35.4L192.3,227.7z"/>
<path class="st0" d="M196.3,33.7C174.5,12,145.7,0,114.9,0C84.2,0,55.4,12,33.6,33.7c-44.8,44.8-44.8,117.8,0,162.6l282,282
	c22.4,22.4,51.9,33.6,81.3,33.6s58.9-11.2,81.3-33.6c44.8-44.8,44.8-117.8,0-162.6L196.3,33.7z M89.9,142.5c-8.3,0-15-6.7-15-15
	s6.7-15,15-15s15,6.7,15,15S98.2,142.5,89.9,142.5z M127.4,180c-8.3,0-15-6.7-15-15s6.7-15,15-15s15,6.7,15,15S135.7,180,127.4,180z
	 M127.4,105c-8.3,0-15-6.7-15-15s6.7-15,15-15s15,6.7,15,15S135.7,105,127.4,105z M149.9,127.5c0-8.3,6.7-15,15-15s15,6.7,15,15
	s-6.7,15-15,15C156.7,142.5,149.9,135.8,149.9,127.5z M294.8,351.5c-2.9,2.9-6.8,4.4-10.6,4.4c-3.8,0-7.7-1.5-10.6-4.4L160.5,238.3
	c-2.8-2.8-4.4-6.6-4.4-10.6s1.6-7.8,4.4-10.6l56.6-56.6c5.9-5.9,15.4-5.9,21.2,0l113.1,113.1c5.9,5.9,5.9,15.4,0,21.2L294.8,351.5z
	 M346.9,399.5c-8.3,0-15-6.7-15-15s6.7-15,15-15s15,6.7,15,15S355.2,399.5,346.9,399.5z M384.4,437c-8.3,0-15-6.7-15-15
	s6.7-15,15-15s15,6.7,15,15S392.7,437,384.4,437z M384.4,362c-8.3,0-15-6.7-15-15s6.7-15,15-15s15,6.7,15,15S392.7,362,384.4,362z
	 M421.9,399.5c-8.3,0-15-6.7-15-15s6.7-15,15-15s15,6.7,15,15S430.2,399.5,421.9,399.5z"/>
<path class="st0" d="M33.6,315.7c-44.8,44.8-44.8,117.8,0,162.6C55.3,500,84.2,512,114.9,512s59.6-12,81.3-33.7l38.5-38.5
	L72.1,277.2L33.6,315.7z M127.4,407c8.3,0,15,6.7,15,15s-6.7,15-15,15s-15-6.7-15-15S119.2,407,127.4,407z M89.9,369.5
	c8.3,0,15,6.7,15,15s-6.7,15-15,15s-15-6.7-15-15S81.7,369.5,89.9,369.5z"/>
<path class="st0" d="M478.3,196.3c44.8-44.8,44.8-117.8,0-162.6s-117.8-44.8-162.6,0l-38.5,38.5l162.6,162.6L478.3,196.3z
	 M384.4,105c-8.3,0-15-6.7-15-15s6.7-15,15-15s15,6.7,15,15S392.7,105,384.4,105z M421.9,142.5c-8.3,0-15-6.7-15-15s6.7-15,15-15
	s15,6.7,15,15S430.2,142.5,421.9,142.5z"/>
</svg>
